<?xml version="1.0" encoding="UTF-8" standalone="no"?>
<!DOCTYPE svg PUBLIC "-//W3C//DTD SVG 1.1//EN"
 "http://www.w3.org/Graphics/SVG/1.1/DTD/svg11.dtd">
<!-- Generated by graphviz version 2.38.0 (20140413.2041)
 -->
<!-- Title: G Pages: 1 -->
<svg width="775pt" height="412pt"
 viewBox="0.00 0.00 774.77 412.00" xmlns="http://www.w3.org/2000/svg" xmlns:xlink="http://www.w3.org/1999/xlink">
<g id="graph0" class="graph" transform="scale(1 1) rotate(0) translate(4 408)">
<title>G</title>
<polygon fill="white" stroke="none" points="-4,4 -4,-408 770.773,-408 770.773,4 -4,4"/>
<g id="clust1" class="cluster"><title>cluster_Global</title>
<path fill="none" stroke="gray" d="M358.773,-8C358.773,-8 746.773,-8 746.773,-8 752.773,-8 758.773,-14 758.773,-20 758.773,-20 758.773,-384 758.773,-384 758.773,-390 752.773,-396 746.773,-396 746.773,-396 358.773,-396 358.773,-396 352.773,-396 346.773,-390 346.773,-384 346.773,-384 346.773,-20 346.773,-20 346.773,-14 352.773,-8 358.773,-8"/>
<text text-anchor="middle" x="552.773" y="-383.2" font-family="Times,serif" font-size="11.00" fill="gray">Global</text>
</g>
<g id="clust2" class="cluster"><title>cluster_\Communique</title>
<path fill="none" stroke="gray" d="M366.773,-16C366.773,-16 738.773,-16 738.773,-16 744.773,-16 750.773,-22 750.773,-28 750.773,-28 750.773,-356 750.773,-356 750.773,-362 744.773,-368 738.773,-368 738.773,-368 366.773,-368 366.773,-368 360.773,-368 354.773,-362 354.773,-356 354.773,-356 354.773,-28 354.773,-28 354.773,-22 360.773,-16 366.773,-16"/>
<text text-anchor="middle" x="552.773" y="-355.2" font-family="Times,serif" font-size="11.00" fill="gray">Communique</text>
</g>
<g id="clust3" class="cluster"><title>cluster_\Communique\lib</title>
<path fill="none" stroke="gray" d="M374.773,-24C374.773,-24 730.773,-24 730.773,-24 736.773,-24 742.773,-30 742.773,-36 742.773,-36 742.773,-328 742.773,-328 742.773,-334 736.773,-340 730.773,-340 730.773,-340 374.773,-340 374.773,-340 368.773,-340 362.773,-334 362.773,-328 362.773,-328 362.773,-36 362.773,-36 362.773,-30 368.773,-24 374.773,-24"/>
<text text-anchor="middle" x="552.773" y="-327.2" font-family="Times,serif" font-size="11.00" fill="gray">lib</text>
</g>
<g id="clust4" class="cluster"><title>cluster_\Communique\lib\Exceptions</title>
<path fill="none" stroke="gray" d="M382.773,-186C382.773,-186 722.773,-186 722.773,-186 728.773,-186 734.773,-192 734.773,-198 734.773,-198 734.773,-300 734.773,-300 734.773,-306 728.773,-312 722.773,-312 722.773,-312 382.773,-312 382.773,-312 376.773,-312 370.773,-306 370.773,-300 370.773,-300 370.773,-198 370.773,-198 370.773,-192 376.773,-186 382.773,-186"/>
<text text-anchor="middle" x="552.773" y="-299.2" font-family="Times,serif" font-size="11.00" fill="gray">Exceptions</text>
</g>
<!-- \\Communique\\lib\\Exceptions\\RESTException -->
<g id="node1" class="node"><title>\\Communique\\lib\\Exceptions\\RESTException</title>
<polygon fill="none" stroke="black" points="482.773,-257 378.773,-257 378.773,-221 482.773,-221 482.773,-257"/>
<text text-anchor="middle" x="430.773" y="-236.2" font-family="Courier,monospace" font-size="11.00">RESTException</text>
</g>
<!-- \\Communique\\lib\\Exceptions\\Exception -->
<g id="node7" class="node"><title>\\Communique\\lib\\Exceptions\\Exception</title>
<ellipse fill="none" stroke="black" cx="153.386" cy="-239" rx="153.273" ry="18"/>
<text text-anchor="middle" x="153.386" y="-235.3" font-family="Times,serif" font-size="14.00" fill="gray">\Communique\lib\Exceptions\Exception</text>
</g>
<!-- \\Communique\\lib\\Exceptions\\RESTException&#45;&gt;\\Communique\\lib\\Exceptions\\Exception -->
<g id="edge1" class="edge"><title>\\Communique\\lib\\Exceptions\\RESTException&#45;&gt;\\Communique\\lib\\Exceptions\\Exception</title>
<path fill="none" stroke="black" d="M378.62,-239C360.613,-239 339.284,-239 317.057,-239"/>
<polygon fill="none" stroke="black" points="316.79,-235.5 306.79,-239 316.79,-242.5 316.79,-235.5"/>
</g>
<!-- \\Communique\\lib\\Exceptions\\RESTSSLException -->
<g id="node2" class="node"><title>\\Communique\\lib\\Exceptions\\RESTSSLException</title>
<polygon fill="none" stroke="black" points="703.273,-284 578.273,-284 578.273,-248 703.273,-248 703.273,-284"/>
<text text-anchor="middle" x="640.773" y="-263.2" font-family="Courier,monospace" font-size="11.00">RESTSSLException</text>
</g>
<!-- \\Communique\\lib\\Exceptions\\RESTSSLException&#45;&gt;\\Communique\\lib\\Exceptions\\RESTException -->
<g id="edge2" class="edge"><title>\\Communique\\lib\\Exceptions\\RESTSSLException&#45;&gt;\\Communique\\lib\\Exceptions\\RESTException</title>
<path fill="none" stroke="black" d="M578.21,-258.009C551.336,-254.52 519.898,-250.439 493.055,-246.955"/>
<polygon fill="none" stroke="black" points="493.379,-243.468 483.012,-245.651 492.478,-250.409 493.379,-243.468"/>
</g>
<!-- \\Communique\\lib\\Exceptions\\RESTConnectionException -->
<g id="node3" class="node"><title>\\Communique\\lib\\Exceptions\\RESTConnectionException</title>
<polygon fill="none" stroke="black" points="726.773,-230 554.773,-230 554.773,-194 726.773,-194 726.773,-230"/>
<text text-anchor="middle" x="640.773" y="-209.2" font-family="Courier,monospace" font-size="11.00">RESTConnectionException</text>
</g>
<!-- \\Communique\\lib\\Exceptions\\RESTConnectionException&#45;&gt;\\Communique\\lib\\Exceptions\\RESTException -->
<g id="edge3" class="edge"><title>\\Communique\\lib\\Exceptions\\RESTConnectionException&#45;&gt;\\Communique\\lib\\Exceptions\\RESTException</title>
<path fill="none" stroke="black" d="M554.571,-223.06C533.934,-225.739 512.276,-228.55 492.994,-231.053"/>
<polygon fill="none" stroke="black" points="492.314,-227.612 482.848,-232.37 493.215,-234.554 492.314,-227.612"/>
</g>
<!-- \\Communique\\lib\\RestClientResponse -->
<g id="node4" class="node"><title>\\Communique\\lib\\RestClientResponse</title>
<polygon fill="none" stroke="black" points="709.773,-176 571.773,-176 571.773,-140 709.773,-140 709.773,-176"/>
<text text-anchor="middle" x="640.773" y="-155.2" font-family="Courier,monospace" font-size="11.00">RestClientResponse</text>
</g>
<!-- \\Communique\\lib\\RestClientRequest -->
<g id="node5" class="node"><title>\\Communique\\lib\\RestClientRequest</title>
<polygon fill="none" stroke="black" points="706.273,-122 575.273,-122 575.273,-86 706.273,-86 706.273,-122"/>
<text text-anchor="middle" x="640.773" y="-101.2" font-family="Courier,monospace" font-size="11.00">RestClientRequest</text>
</g>
<!-- \\Communique\\lib\\RequestModifier -->
<g id="node6" class="node"><title>\\Communique\\lib\\RequestModifier</title>
<polygon fill="none" stroke="black" points="699.773,-68 581.773,-68 581.773,-32 699.773,-32 699.773,-68"/>
<text text-anchor="middle" x="640.773" y="-47.2" font-family="Courier,monospace" font-size="11.00">RequestModifier</text>
</g>
</g>
</svg>
