<?xml version="1.0" encoding="UTF-8" standalone="no"?>
<!DOCTYPE svg PUBLIC "-//W3C//DTD SVG 1.1//EN"
 "http://www.w3.org/Graphics/SVG/1.1/DTD/svg11.dtd">
<!-- Generated by graphviz version 2.38.0 (20140413.2041)
 -->
<!-- Title: G Pages: 1 -->
<svg width="775pt" height="358pt"
 viewBox="0.00 0.00 774.77 358.00" xmlns="http://www.w3.org/2000/svg" xmlns:xlink="http://www.w3.org/1999/xlink">
<g id="graph0" class="graph" transform="scale(1 1) rotate(0) translate(4 354)">
<title>G</title>
<polygon fill="white" stroke="none" points="-4,4 -4,-354 770.773,-354 770.773,4 -4,4"/>
<g id="clust1" class="cluster"><title>cluster_Global</title>
<path fill="none" stroke="gray" d="M358.773,-8C358.773,-8 746.773,-8 746.773,-8 752.773,-8 758.773,-14 758.773,-20 758.773,-20 758.773,-330 758.773,-330 758.773,-336 752.773,-342 746.773,-342 746.773,-342 358.773,-342 358.773,-342 352.773,-342 346.773,-336 346.773,-330 346.773,-330 346.773,-20 346.773,-20 346.773,-14 352.773,-8 358.773,-8"/>
<text text-anchor="middle" x="552.773" y="-329.2" font-family="Times,serif" font-size="11.00" fill="gray">Global</text>
</g>
<g id="clust2" class="cluster"><title>cluster_\Communique</title>
<path fill="none" stroke="gray" d="M366.773,-16C366.773,-16 738.773,-16 738.773,-16 744.773,-16 750.773,-22 750.773,-28 750.773,-28 750.773,-302 750.773,-302 750.773,-308 744.773,-314 738.773,-314 738.773,-314 366.773,-314 366.773,-314 360.773,-314 354.773,-308 354.773,-302 354.773,-302 354.773,-28 354.773,-28 354.773,-22 360.773,-16 366.773,-16"/>
<text text-anchor="middle" x="552.773" y="-301.2" font-family="Times,serif" font-size="11.00" fill="gray">Communique</text>
</g>
<g id="clust3" class="cluster"><title>cluster_\Communique\lib</title>
<path fill="none" stroke="gray" d="M374.773,-24C374.773,-24 730.773,-24 730.773,-24 736.773,-24 742.773,-30 742.773,-36 742.773,-36 742.773,-274 742.773,-274 742.773,-280 736.773,-286 730.773,-286 730.773,-286 374.773,-286 374.773,-286 368.773,-286 362.773,-280 362.773,-274 362.773,-274 362.773,-36 362.773,-36 362.773,-30 368.773,-24 374.773,-24"/>
<text text-anchor="middle" x="552.773" y="-273.2" font-family="Times,serif" font-size="11.00" fill="gray">lib</text>
</g>
<g id="clust4" class="cluster"><title>cluster_\Communique\lib\Exceptions</title>
<path fill="none" stroke="gray" d="M382.773,-132C382.773,-132 722.773,-132 722.773,-132 728.773,-132 734.773,-138 734.773,-144 734.773,-144 734.773,-246 734.773,-246 734.773,-252 728.773,-258 722.773,-258 722.773,-258 382.773,-258 382.773,-258 376.773,-258 370.773,-252 370.773,-246 370.773,-246 370.773,-144 370.773,-144 370.773,-138 376.773,-132 382.773,-132"/>
<text text-anchor="middle" x="552.773" y="-245.2" font-family="Times,serif" font-size="11.00" fill="gray">Exceptions</text>
</g>
<!-- \\Communique\\lib\\Exceptions\\RESTException -->
<g id="node1" class="node"><title>\\Communique\\lib\\Exceptions\\RESTException</title>
<polygon fill="none" stroke="black" points="482.773,-203 378.773,-203 378.773,-167 482.773,-167 482.773,-203"/>
<text text-anchor="middle" x="430.773" y="-182.2" font-family="Courier,monospace" font-size="11.00">RESTException</text>
</g>
<!-- \\Communique\\lib\\Exceptions\\Exception -->
<g id="node6" class="node"><title>\\Communique\\lib\\Exceptions\\Exception</title>
<ellipse fill="none" stroke="black" cx="153.386" cy="-185" rx="153.273" ry="18"/>
<text text-anchor="middle" x="153.386" y="-181.3" font-family="Times,serif" font-size="14.00" fill="gray">\Communique\lib\Exceptions\Exception</text>
</g>
<!-- \\Communique\\lib\\Exceptions\\RESTException&#45;&gt;\\Communique\\lib\\Exceptions\\Exception -->
<g id="edge1" class="edge"><title>\\Communique\\lib\\Exceptions\\RESTException&#45;&gt;\\Communique\\lib\\Exceptions\\Exception</title>
<path fill="none" stroke="black" d="M378.62,-185C360.613,-185 339.284,-185 317.057,-185"/>
<polygon fill="none" stroke="black" points="316.79,-181.5 306.79,-185 316.79,-188.5 316.79,-181.5"/>
</g>
<!-- \\Communique\\lib\\Exceptions\\RESTSSLException -->
<g id="node2" class="node"><title>\\Communique\\lib\\Exceptions\\RESTSSLException</title>
<polygon fill="none" stroke="black" points="703.273,-230 578.273,-230 578.273,-194 703.273,-194 703.273,-230"/>
<text text-anchor="middle" x="640.773" y="-209.2" font-family="Courier,monospace" font-size="11.00">RESTSSLException</text>
</g>
<!-- \\Communique\\lib\\Exceptions\\RESTSSLException&#45;&gt;\\Communique\\lib\\Exceptions\\RESTException -->
<g id="edge2" class="edge"><title>\\Communique\\lib\\Exceptions\\RESTSSLException&#45;&gt;\\Communique\\lib\\Exceptions\\RESTException</title>
<path fill="none" stroke="black" d="M578.21,-204.009C551.336,-200.52 519.898,-196.439 493.055,-192.955"/>
<polygon fill="none" stroke="black" points="493.379,-189.468 483.012,-191.651 492.478,-196.409 493.379,-189.468"/>
</g>
<!-- \\Communique\\lib\\Exceptions\\RESTConnectionException -->
<g id="node3" class="node"><title>\\Communique\\lib\\Exceptions\\RESTConnectionException</title>
<polygon fill="none" stroke="black" points="726.773,-176 554.773,-176 554.773,-140 726.773,-140 726.773,-176"/>
<text text-anchor="middle" x="640.773" y="-155.2" font-family="Courier,monospace" font-size="11.00">RESTConnectionException</text>
</g>
<!-- \\Communique\\lib\\Exceptions\\RESTConnectionException&#45;&gt;\\Communique\\lib\\Exceptions\\RESTException -->
<g id="edge3" class="edge"><title>\\Communique\\lib\\Exceptions\\RESTConnectionException&#45;&gt;\\Communique\\lib\\Exceptions\\RESTException</title>
<path fill="none" stroke="black" d="M554.571,-169.06C533.934,-171.739 512.276,-174.55 492.994,-177.053"/>
<polygon fill="none" stroke="black" points="492.314,-173.612 482.848,-178.37 493.215,-180.554 492.314,-173.612"/>
</g>
<!-- \\Communique\\lib\\RestClientResponse -->
<g id="node4" class="node"><title>\\Communique\\lib\\RestClientResponse</title>
<polygon fill="none" stroke="black" points="709.773,-122 571.773,-122 571.773,-86 709.773,-86 709.773,-122"/>
<text text-anchor="middle" x="640.773" y="-101.2" font-family="Courier,monospace" font-size="11.00">RestClientResponse</text>
</g>
<!-- \\Communique\\lib\\RestClientRequest -->
<g id="node5" class="node"><title>\\Communique\\lib\\RestClientRequest</title>
<polygon fill="none" stroke="black" points="706.273,-68 575.273,-68 575.273,-32 706.273,-32 706.273,-68"/>
<text text-anchor="middle" x="640.773" y="-47.2" font-family="Courier,monospace" font-size="11.00">RestClientRequest</text>
</g>
</g>
</svg>
