<?xml version="1.0" encoding="UTF-8" standalone="no"?>
<!DOCTYPE svg PUBLIC "-//W3C//DTD SVG 1.1//EN"
 "http://www.w3.org/Graphics/SVG/1.1/DTD/svg11.dtd">
<!-- Generated by graphviz version 2.38.0 (20140413.2041)
 -->
<!-- Title: G Pages: 1 -->
<svg width="657pt" height="564pt"
 viewBox="0.00 0.00 657.49 564.00" xmlns="http://www.w3.org/2000/svg" xmlns:xlink="http://www.w3.org/1999/xlink">
<g id="graph0" class="graph" transform="scale(1 1) rotate(0) translate(4 560)">
<title>G</title>
<polygon fill="white" stroke="none" points="-4,4 -4,-560 653.491,-560 653.491,4 -4,4"/>
<g id="clust1" class="cluster"><title>cluster_Global</title>
<path fill="none" stroke="gray" d="M165.491,-8C165.491,-8 629.491,-8 629.491,-8 635.491,-8 641.491,-14 641.491,-20 641.491,-20 641.491,-536 641.491,-536 641.491,-542 635.491,-548 629.491,-548 629.491,-548 165.491,-548 165.491,-548 159.491,-548 153.491,-542 153.491,-536 153.491,-536 153.491,-20 153.491,-20 153.491,-14 159.491,-8 165.491,-8"/>
<text text-anchor="middle" x="397.491" y="-535.2" font-family="Times,serif" font-size="11.00" fill="gray">Global</text>
</g>
<g id="clust2" class="cluster"><title>cluster_\Communique</title>
<path fill="none" stroke="gray" d="M173.491,-16C173.491,-16 621.491,-16 621.491,-16 627.491,-16 633.491,-22 633.491,-28 633.491,-28 633.491,-508 633.491,-508 633.491,-514 627.491,-520 621.491,-520 621.491,-520 173.491,-520 173.491,-520 167.491,-520 161.491,-514 161.491,-508 161.491,-508 161.491,-28 161.491,-28 161.491,-22 167.491,-16 173.491,-16"/>
<text text-anchor="middle" x="397.491" y="-507.2" font-family="Times,serif" font-size="11.00" fill="gray">Communique</text>
</g>
<!-- \\Communique\\CommuniqueRESTConnectionException -->
<g id="node1" class="node"><title>\\Communique\\CommuniqueRESTConnectionException</title>
<polygon fill="none" stroke="black" points="625.491,-492 386.491,-492 386.491,-456 625.491,-456 625.491,-492"/>
<text text-anchor="middle" x="505.991" y="-471.2" font-family="Courier,monospace" font-size="11.00">CommuniqueRESTConnectionException</text>
</g>
<!-- \\Communique\\CommuniqueException -->
<g id="node4" class="node"><title>\\Communique\\CommuniqueException</title>
<polygon fill="none" stroke="black" points="314.491,-438 169.491,-438 169.491,-402 314.491,-402 314.491,-438"/>
<text text-anchor="middle" x="241.991" y="-417.2" font-family="Courier,monospace" font-size="11.00">CommuniqueException</text>
</g>
<!-- \\Communique\\CommuniqueRESTConnectionException&#45;&gt;\\Communique\\CommuniqueException -->
<g id="edge1" class="edge"><title>\\Communique\\CommuniqueRESTConnectionException&#45;&gt;\\Communique\\CommuniqueException</title>
<path fill="none" stroke="black" d="M417.385,-455.944C387.447,-449.773 354.1,-442.9 324.65,-436.83"/>
<polygon fill="none" stroke="black" points="325.323,-433.396 314.822,-434.805 323.91,-440.251 325.323,-433.396"/>
</g>
<!-- \\Communique\\CommuniqueRESTSSLException -->
<g id="node2" class="node"><title>\\Communique\\CommuniqueRESTSSLException</title>
<polygon fill="none" stroke="black" points="601.991,-438 409.991,-438 409.991,-402 601.991,-402 601.991,-438"/>
<text text-anchor="middle" x="505.991" y="-417.2" font-family="Courier,monospace" font-size="11.00">CommuniqueRESTSSLException</text>
</g>
<!-- \\Communique\\CommuniqueRESTSSLException&#45;&gt;\\Communique\\CommuniqueException -->
<g id="edge2" class="edge"><title>\\Communique\\CommuniqueRESTSSLException&#45;&gt;\\Communique\\CommuniqueException</title>
<path fill="none" stroke="black" d="M409.662,-420C381.898,-420 351.82,-420 324.957,-420"/>
<polygon fill="none" stroke="black" points="324.83,-416.5 314.83,-420 324.83,-423.5 324.83,-416.5"/>
</g>
<!-- \\Communique\\Communique -->
<g id="node3" class="node"><title>\\Communique\\Communique</title>
<polygon fill="none" stroke="black" points="547.991,-384 463.991,-384 463.991,-348 547.991,-348 547.991,-384"/>
<text text-anchor="middle" x="505.991" y="-363.2" font-family="Courier,monospace" font-size="11.00">Communique</text>
</g>
<!-- \\Exception -->
<g id="node12" class="node"><title>\\Exception</title>
<ellipse fill="none" stroke="black" cx="48.7457" cy="-420" rx="48.9926" ry="18"/>
<text text-anchor="middle" x="48.7457" y="-416.3" font-family="Times,serif" font-size="14.00" fill="gray">\Exception</text>
</g>
<!-- \\Communique\\CommuniqueException&#45;&gt;\\Exception -->
<g id="edge3" class="edge"><title>\\Communique\\CommuniqueException&#45;&gt;\\Exception</title>
<path fill="none" stroke="black" d="M169.234,-420C148.93,-420 127.092,-420 107.71,-420"/>
<polygon fill="none" stroke="black" points="107.521,-416.5 97.5213,-420 107.521,-423.5 107.521,-416.5"/>
</g>
<!-- \\Communique\\RESTClientRequest -->
<g id="node5" class="node"><title>\\Communique\\RESTClientRequest</title>
<polygon fill="none" stroke="black" points="571.491,-330 440.491,-330 440.491,-294 571.491,-294 571.491,-330"/>
<text text-anchor="middle" x="505.991" y="-309.2" font-family="Courier,monospace" font-size="11.00">RESTClientRequest</text>
</g>
<!-- \\Communique\\CommuniqueRESTException -->
<g id="node6" class="node"><title>\\Communique\\CommuniqueRESTException</title>
<polygon fill="none" stroke="black" points="591.991,-276 419.991,-276 419.991,-240 591.991,-240 591.991,-276"/>
<text text-anchor="middle" x="505.991" y="-255.2" font-family="Courier,monospace" font-size="11.00">CommuniqueRESTException</text>
</g>
<!-- \\Communique\\CommuniqueRESTException&#45;&gt;\\Communique\\CommuniqueException -->
<g id="edge4" class="edge"><title>\\Communique\\CommuniqueRESTException&#45;&gt;\\Communique\\CommuniqueException</title>
<path fill="none" stroke="black" d="M419.805,-271.611C408.251,-275.107 396.827,-279.494 386.491,-285 335.165,-312.341 288.721,-362.909 263.312,-393.795"/>
<polygon fill="none" stroke="black" points="260.284,-391.972 256.716,-401.948 265.727,-396.374 260.284,-391.972"/>
</g>
<!-- \\Communique\\Curl -->
<g id="node7" class="node"><title>\\Communique\\Curl</title>
<polygon fill="none" stroke="black" points="532.991,-222 478.991,-222 478.991,-186 532.991,-186 532.991,-222"/>
<text text-anchor="middle" x="505.991" y="-201.2" font-family="Courier,monospace" font-size="11.00">Curl</text>
</g>
<!-- \\Communique\\CurlHTTPClient -->
<g id="node8" class="node"><title>\\Communique\\CurlHTTPClient</title>
<polygon fill="none" stroke="black" points="561.491,-168 450.491,-168 450.491,-132 561.491,-132 561.491,-168"/>
<text text-anchor="middle" x="505.991" y="-147.2" font-family="Courier,monospace" font-size="11.00">CurlHTTPClient</text>
</g>
<!-- \\Communique\\HTTPClient -->
<g id="node11" class="node"><title>\\Communique\\HTTPClient</title>
<polygon fill="none" stroke="black" points="283.991,-168 199.991,-168 199.991,-132 283.991,-132 283.991,-168"/>
<text text-anchor="middle" x="241.991" y="-147.2" font-family="Courier,monospace" font-size="11.00">HTTPClient</text>
</g>
<!-- \\Communique\\CurlHTTPClient&#45;&gt;\\Communique\\HTTPClient -->
<g id="edge5" class="edge"><title>\\Communique\\CurlHTTPClient&#45;&gt;\\Communique\\HTTPClient</title>
<path fill="none" stroke="black" stroke-dasharray="1,5" d="M450.386,-150C404.473,-150 339.314,-150 294.341,-150"/>
<polygon fill="none" stroke="black" points="294.218,-146.5 284.218,-150 294.218,-153.5 294.218,-146.5"/>
</g>
<!-- \\Communique\\RESTClientResponse -->
<g id="node9" class="node"><title>\\Communique\\RESTClientResponse</title>
<polygon fill="none" stroke="black" points="574.991,-114 436.991,-114 436.991,-78 574.991,-78 574.991,-114"/>
<text text-anchor="middle" x="505.991" y="-93.2" font-family="Courier,monospace" font-size="11.00">RESTClientResponse</text>
</g>
<!-- \\Communique\\Interceptor -->
<g id="node10" class="node"><title>\\Communique\\Interceptor</title>
<polygon fill="none" stroke="black" points="551.491,-60 460.491,-60 460.491,-24 551.491,-24 551.491,-60"/>
<text text-anchor="middle" x="505.991" y="-39.2" font-family="Courier,monospace" font-size="11.00">Interceptor</text>
</g>
</g>
</svg>
