<?xml version="1.0" encoding="UTF-8" standalone="no"?>
<!DOCTYPE svg PUBLIC "-//W3C//DTD SVG 1.1//EN"
 "http://www.w3.org/Graphics/SVG/1.1/DTD/svg11.dtd">
<!-- Generated by graphviz version 2.38.0 (20140413.2041)
 -->
<!-- Title: G Pages: 1 -->
<svg width="549pt" height="456pt"
 viewBox="0.00 0.00 549.49 456.00" xmlns="http://www.w3.org/2000/svg" xmlns:xlink="http://www.w3.org/1999/xlink">
<g id="graph0" class="graph" transform="scale(1 1) rotate(0) translate(4 452)">
<title>G</title>
<polygon fill="white" stroke="none" points="-4,4 -4,-452 545.491,-452 545.491,4 -4,4"/>
<g id="clust1" class="cluster"><title>cluster_Global</title>
<path fill="none" stroke="gray" d="M165.491,-8C165.491,-8 521.491,-8 521.491,-8 527.491,-8 533.491,-14 533.491,-20 533.491,-20 533.491,-428 533.491,-428 533.491,-434 527.491,-440 521.491,-440 521.491,-440 165.491,-440 165.491,-440 159.491,-440 153.491,-434 153.491,-428 153.491,-428 153.491,-20 153.491,-20 153.491,-14 159.491,-8 165.491,-8"/>
<text text-anchor="middle" x="343.491" y="-427.2" font-family="Times,serif" font-size="11.00" fill="gray">Global</text>
</g>
<g id="clust2" class="cluster"><title>cluster_\Communique</title>
<path fill="none" stroke="gray" d="M173.491,-16C173.491,-16 513.491,-16 513.491,-16 519.491,-16 525.491,-22 525.491,-28 525.491,-28 525.491,-400 525.491,-400 525.491,-406 519.491,-412 513.491,-412 513.491,-412 173.491,-412 173.491,-412 167.491,-412 161.491,-406 161.491,-400 161.491,-400 161.491,-28 161.491,-28 161.491,-22 167.491,-16 173.491,-16"/>
<text text-anchor="middle" x="343.491" y="-399.2" font-family="Times,serif" font-size="11.00" fill="gray">Communique</text>
</g>
<!-- \\Communique\\RESTConnectionException -->
<g id="node1" class="node"><title>\\Communique\\RESTConnectionException</title>
<polygon fill="none" stroke="black" points="517.491,-384 345.491,-384 345.491,-348 517.491,-348 517.491,-384"/>
<text text-anchor="middle" x="431.491" y="-363.2" font-family="Courier,monospace" font-size="11.00">RESTConnectionException</text>
</g>
<!-- \\Communique\\RESTException -->
<g id="node3" class="node"><title>\\Communique\\RESTException</title>
<polygon fill="none" stroke="black" points="273.491,-357 169.491,-357 169.491,-321 273.491,-321 273.491,-357"/>
<text text-anchor="middle" x="221.491" y="-336.2" font-family="Courier,monospace" font-size="11.00">RESTException</text>
</g>
<!-- \\Communique\\RESTConnectionException&#45;&gt;\\Communique\\RESTException -->
<g id="edge1" class="edge"><title>\\Communique\\RESTConnectionException&#45;&gt;\\Communique\\RESTException</title>
<path fill="none" stroke="black" d="M345.29,-354.94C324.653,-352.261 302.995,-349.45 283.713,-346.947"/>
<polygon fill="none" stroke="black" points="283.934,-343.446 273.566,-345.63 283.033,-350.388 283.934,-343.446"/>
</g>
<!-- \\Communique\\RESTSSLException -->
<g id="node2" class="node"><title>\\Communique\\RESTSSLException</title>
<polygon fill="none" stroke="black" points="493.991,-330 368.991,-330 368.991,-294 493.991,-294 493.991,-330"/>
<text text-anchor="middle" x="431.491" y="-309.2" font-family="Courier,monospace" font-size="11.00">RESTSSLException</text>
</g>
<!-- \\Communique\\RESTSSLException&#45;&gt;\\Communique\\RESTException -->
<g id="edge2" class="edge"><title>\\Communique\\RESTSSLException&#45;&gt;\\Communique\\RESTException</title>
<path fill="none" stroke="black" d="M368.929,-319.991C342.054,-323.48 310.617,-327.561 283.774,-331.045"/>
<polygon fill="none" stroke="black" points="283.197,-327.591 273.73,-332.349 284.098,-334.532 283.197,-327.591"/>
</g>
<!-- \\Exception -->
<g id="node10" class="node"><title>\\Exception</title>
<ellipse fill="none" stroke="black" cx="48.7457" cy="-339" rx="48.9926" ry="18"/>
<text text-anchor="middle" x="48.7457" y="-335.3" font-family="Times,serif" font-size="14.00" fill="gray">\Exception</text>
</g>
<!-- \\Communique\\RESTException&#45;&gt;\\Exception -->
<g id="edge3" class="edge"><title>\\Communique\\RESTException&#45;&gt;\\Exception</title>
<path fill="none" stroke="black" d="M169.262,-339C149.939,-339 127.822,-339 107.91,-339"/>
<polygon fill="none" stroke="black" points="107.725,-335.5 97.7249,-339 107.725,-342.5 107.725,-335.5"/>
</g>
<!-- \\Communique\\Communique -->
<g id="node4" class="node"><title>\\Communique\\Communique</title>
<polygon fill="none" stroke="black" points="473.491,-276 389.491,-276 389.491,-240 473.491,-240 473.491,-276"/>
<text text-anchor="middle" x="431.491" y="-255.2" font-family="Courier,monospace" font-size="11.00">Communique</text>
</g>
<!-- \\Communique\\RESTClientRequest -->
<g id="node5" class="node"><title>\\Communique\\RESTClientRequest</title>
<polygon fill="none" stroke="black" points="496.991,-222 365.991,-222 365.991,-186 496.991,-186 496.991,-222"/>
<text text-anchor="middle" x="431.491" y="-201.2" font-family="Courier,monospace" font-size="11.00">RESTClientRequest</text>
</g>
<!-- \\Communique\\CurlHTTPClient -->
<g id="node6" class="node"><title>\\Communique\\CurlHTTPClient</title>
<polygon fill="none" stroke="black" points="486.991,-168 375.991,-168 375.991,-132 486.991,-132 486.991,-168"/>
<text text-anchor="middle" x="431.491" y="-147.2" font-family="Courier,monospace" font-size="11.00">CurlHTTPClient</text>
</g>
<!-- \\Communique\\HTTPClient -->
<g id="node9" class="node"><title>\\Communique\\HTTPClient</title>
<polygon fill="none" stroke="black" points="263.491,-168 179.491,-168 179.491,-132 263.491,-132 263.491,-168"/>
<text text-anchor="middle" x="221.491" y="-147.2" font-family="Courier,monospace" font-size="11.00">HTTPClient</text>
</g>
<!-- \\Communique\\CurlHTTPClient&#45;&gt;\\Communique\\HTTPClient -->
<g id="edge4" class="edge"><title>\\Communique\\CurlHTTPClient&#45;&gt;\\Communique\\HTTPClient</title>
<path fill="none" stroke="black" stroke-dasharray="1,5" d="M375.842,-150C344.265,-150 304.786,-150 273.794,-150"/>
<polygon fill="none" stroke="black" points="273.632,-146.5 263.632,-150 273.632,-153.5 273.632,-146.5"/>
</g>
<!-- \\Communique\\RESTClientResponse -->
<g id="node7" class="node"><title>\\Communique\\RESTClientResponse</title>
<polygon fill="none" stroke="black" points="500.491,-114 362.491,-114 362.491,-78 500.491,-78 500.491,-114"/>
<text text-anchor="middle" x="431.491" y="-93.2" font-family="Courier,monospace" font-size="11.00">RESTClientResponse</text>
</g>
<!-- \\Communique\\Interceptor -->
<g id="node8" class="node"><title>\\Communique\\Interceptor</title>
<polygon fill="none" stroke="black" points="476.991,-60 385.991,-60 385.991,-24 476.991,-24 476.991,-60"/>
<text text-anchor="middle" x="431.491" y="-39.2" font-family="Courier,monospace" font-size="11.00">Interceptor</text>
</g>
</g>
</svg>
